<?xml version="1.0" encoding="UTF-8"?>
<!DOCTYPE svg PUBLIC "-//W3C//DTD SVG 1.1//EN" "http://www.w3.org/Graphics/SVG/1.1/DTD/svg11.dtd">
<svg xmlns="http://www.w3.org/2000/svg" version="1.1" width="200px" height="200px" style="shape-rendering:geometricPrecision; text-rendering:geometricPrecision; image-rendering:optimizeQuality; fill-rule:evenodd; clip-rule:evenodd" xmlns:xlink="http://www.w3.org/1999/xlink">
<g><path style="opacity:0.004" fill="#fefffe" d="M 86.5,1.5 C 87.8333,2.16667 87.8333,2.16667 86.5,1.5 Z"/></g>
<g><path style="opacity:0.004" fill="#fefffe" d="M 145.5,2.5 C 146.833,3.16667 146.833,3.16667 145.5,2.5 Z"/></g>
<g><path style="opacity:0.004" fill="#fefffe" d="M 62.5,3.5 C 63.8333,4.16667 63.8333,4.16667 62.5,3.5 Z"/></g>
<g><path style="opacity:0.004" fill="#fefffe" d="M 122.5,3.5 C 123.833,4.16667 123.833,4.16667 122.5,3.5 Z"/></g>
<g><path style="opacity:0.004" fill="#fefffe" d="M 187.5,4.5 C 188.833,5.16667 188.833,5.16667 187.5,4.5 Z"/></g>
<g><path style="opacity:0.004" fill="#fefffe" d="M 165.5,6.5 C 166.833,7.16667 166.833,7.16667 165.5,6.5 Z"/></g>
<g><path style="opacity:0.004" fill="#fefffe" d="M 92.5,7.5 C 93.8333,8.16667 93.8333,8.16667 92.5,7.5 Z"/></g>
<g><path style="opacity:0.004" fill="#fefffe" d="M 45.5,8.5 C 46.8333,9.16667 46.8333,9.16667 45.5,8.5 Z"/></g>
<g><path style="opacity:1" fill="#d9576d" d="M 171.5,21.5 C 170.127,21.6567 168.793,21.49 167.5,21C 160.897,16.5002 153.563,13.5002 145.5,12C 146.167,11.6667 146.833,11.3333 147.5,11C 146.354,10.3551 145.354,9.52173 144.5,8.5C 136.452,11.6545 128.119,13.6545 119.5,14.5C 128.035,10.6038 137.035,8.43708 146.5,8C 155.214,12.02 163.547,16.52 171.5,21.5 Z"/></g>
<g><path style="opacity:1" fill="#e11d48" d="M 171.5,21.5 C 171.414,22.4959 171.748,23.3292 172.5,24C 177.487,27.3278 182.82,29.8278 188.5,31.5C 189.156,84.3152 188.49,136.982 186.5,189.5C 128.167,190.833 69.8333,190.833 11.5,189.5C 10.8406,173.709 10.5073,157.876 10.5,142C 10.5295,125.682 11.1961,109.515 12.5,93.5C 18.4007,89.7176 24.734,86.7176 31.5,84.5C 34.5788,84.2601 37.5788,84.5934 40.5,85.5C 42.9343,84.0901 45.2676,82.5901 47.5,81C 46.8333,80.6667 46.1667,80.3333 45.5,80C 48.0048,78.2467 50.6714,76.7467 53.5,75.5C 54.2975,75.0431 54.6309,74.3764 54.5,73.5C 59.9768,70.5968 65.6435,67.9302 71.5,65.5C 72.1667,65.5 72.8333,65.5 73.5,65.5C 74.3307,54.0072 74.8307,42.3405 75,30.5C 79.6333,29.1328 84.1333,27.2995 88.5,25C 95.4464,25.0768 101.446,22.9101 106.5,18.5C 111.165,17.9431 115.498,16.6098 119.5,14.5C 128.119,13.6545 136.452,11.6545 144.5,8.5C 145.354,9.52173 146.354,10.3551 147.5,11C 146.833,11.3333 146.167,11.6667 145.5,12C 153.563,13.5002 160.897,16.5002 167.5,21C 168.793,21.49 170.127,21.6567 171.5,21.5 Z M 159.5,24.5 C 162.331,26.4168 165.331,28.0834 168.5,29.5C 172.771,31.9731 177.104,34.4731 181.5,37C 180.528,85.6288 180.194,134.462 180.5,183.5C 169.5,183.5 158.5,183.5 147.5,183.5C 147.167,128.829 147.5,74.1626 148.5,19.5C 152.069,21.4526 155.736,23.1192 159.5,24.5 Z M 108.5,66.5 C 108.833,66.5 109.167,66.5 109.5,66.5C 119.197,69.0093 129.03,71.3427 139,73.5C 138.822,110.219 138.655,146.886 138.5,183.5C 125.5,183.5 112.5,183.5 99.5,183.5C 99.8202,144.026 99.8202,104.693 99.5,65.5C 102.518,65.7038 105.518,66.0371 108.5,66.5 Z"/></g>
<g><path style="opacity:0.004" fill="#fefffe" d="M 38.5,11.5 C 39.8333,12.1667 39.8333,12.1667 38.5,11.5 Z"/></g>
<g><path style="opacity:0.004" fill="#fefffe" d="M 95.5,15.5 C 96.8333,16.1667 96.8333,16.1667 95.5,15.5 Z"/></g>
<g><path style="opacity:0.91" fill="#dc7888" d="M 119.5,14.5 C 115.498,16.6098 111.165,17.9431 106.5,18.5C 110.502,16.3902 114.835,15.0569 119.5,14.5 Z"/></g>
<g><path style="opacity:0.004" fill="#fefffe" d="M 22.5,17.5 C 23.8333,18.1667 23.8333,18.1667 22.5,17.5 Z"/></g>
<g><path style="opacity:0.004" fill="#fefffe" d="M 35.5,18.5 C 36.8333,19.1667 36.8333,19.1667 35.5,18.5 Z"/></g>
<g><path style="opacity:0.004" fill="#fefffe" d="M 33.5,23.5 C 34.8333,24.1667 34.8333,24.1667 33.5,23.5 Z"/></g>
<g><path style="opacity:1" fill="#d2465f" d="M 106.5,18.5 C 101.446,22.9101 95.4464,25.0768 88.5,25C 84.1333,27.2995 79.6333,29.1328 75,30.5C 74.8307,42.3405 74.3307,54.0072 73.5,65.5C 73.5,54.1667 73.5,42.8333 73.5,31.5C 73.1367,29.0885 74.1367,27.5885 76.5,27C 86.3788,23.6503 96.3788,20.817 106.5,18.5 Z"/></g>
<g><path style="opacity:0.004" fill="#fefffe" d="M 42.5,30.5 C 43.8333,31.1667 43.8333,31.1667 42.5,30.5 Z"/></g>
<g><path style="opacity:0.006" fill="#fffbfc" d="M 73.5,31.5 C 73.5,42.8333 73.5,54.1667 73.5,65.5C 72.8333,65.5 72.1667,65.5 71.5,65.5C 72.1467,54.0682 72.8133,42.7348 73.5,31.5 Z"/></g>
<g><path style="opacity:0.004" fill="#fefffe" d="M 46.5,39.5 C 47.8333,40.1667 47.8333,40.1667 46.5,39.5 Z"/></g>
<g><path style="opacity:1" fill="#e04159" d="M 153.5,49.5 C 156.167,49.5 158.833,49.5 161.5,49.5C 161.949,55.352 161.449,61.0187 160,66.5C 158.355,66.3068 156.521,66.1402 154.5,66C 154,65.5 153.5,65 153,64.5C 152.798,59.2732 152.964,54.2732 153.5,49.5 Z"/></g>
<g><path style="opacity:0.004" fill="#fefffe" d="M 0.5,57.5 C 1.83333,58.1667 1.83333,58.1667 0.5,57.5 Z"/></g>
<g><path style="opacity:0.004" fill="#fefffe" d="M 40.5,58.5 C 41.8333,59.1667 41.8333,59.1667 40.5,58.5 Z"/></g>
<g><path style="opacity:0.004" fill="#fefffe" d="M 10.5,59.5 C 11.8333,60.1667 11.8333,60.1667 10.5,59.5 Z"/></g>
<g><path style="opacity:1" fill="#e0455b" d="M 166.5,49.5 C 169.5,49.5 172.5,49.5 175.5,49.5C 175.5,54.8333 175.5,60.1667 175.5,65.5C 172.72,65.9452 170.053,65.9452 167.5,65.5C 166.505,60.2079 166.172,54.8746 166.5,49.5 Z"/></g>
<g><path style="opacity:1" fill="#de4058" d="M 152.5,73.5 C 155.5,73.5 158.5,73.5 161.5,73.5C 161.949,79.352 161.449,85.0187 160,90.5C 158.355,90.3068 156.521,90.1402 154.5,90C 154,89.5 153.5,89 153,88.5C 153.292,83.4542 153.125,78.4542 152.5,73.5 Z"/></g>
<g><path style="opacity:0.004" fill="#fefffe" d="M 0.5,78.5 C 1.83333,79.1667 1.83333,79.1667 0.5,78.5 Z"/></g>
<g><path style="opacity:0.988" fill="#c33d57" d="M 127.5,77.5 C 130.167,77.5 132.833,77.5 135.5,77.5C 135.949,83.352 135.449,89.0187 134,94.5C 132.542,93.2532 131.042,93.2532 129.5,94.5C 128.354,93.8551 127.354,93.0217 126.5,92C 127.469,87.2633 127.803,82.43 127.5,77.5 Z"/></g>
<g><path style="opacity:1" fill="#e11d48" d="M 128.5,78.5 C 130.5,78.5 132.5,78.5 134.5,78.5C 134.5,83.1667 134.5,87.8333 134.5,92.5C 132.5,92.5 130.5,92.5 128.5,92.5C 128.5,87.8333 128.5,83.1667 128.5,78.5 Z"/></g>
<g><path style="opacity:1" fill="#d9415b" d="M 54.5,73.5 C 54.6309,74.3764 54.2975,75.0431 53.5,75.5C 50.6714,76.7467 48.0048,78.2467 45.5,80C 46.1667,80.3333 46.8333,80.6667 47.5,81C 45.2676,82.5901 42.9343,84.0901 40.5,85.5C 37.5788,84.5934 34.5788,84.2601 31.5,84.5C 38.9758,80.5968 46.6424,76.9301 54.5,73.5 Z"/></g>
<g><path style="opacity:1" fill="#d9254a" d="M 103.5,77.5 C 106.167,77.5 108.833,77.5 111.5,77.5C 111.5,82.8333 111.5,88.1667 111.5,93.5C 108.278,93.8919 105.278,93.3919 102.5,92C 103.384,87.0489 103.717,82.2156 103.5,77.5 Z"/></g>
<g><path style="opacity:0.986" fill="#c6445b" d="M 115.5,77.5 C 118.167,77.5 120.833,77.5 123.5,77.5C 123.949,83.352 123.449,89.0187 122,94.5C 120.278,94.0385 118.445,93.8718 116.5,94C 115.643,93.3109 114.977,92.4776 114.5,91.5C 115.396,86.6866 115.73,82.02 115.5,77.5 Z"/></g>
<g><path style="opacity:1" fill="#e11d47" d="M 116.5,78.5 C 118.5,78.5 120.5,78.5 122.5,78.5C 122.5,83.1667 122.5,87.8333 122.5,92.5C 120.5,92.5 118.5,92.5 116.5,92.5C 116.5,87.8333 116.5,83.1667 116.5,78.5 Z"/></g>
<g><path style="opacity:1" fill="#e0455a" d="M 166.5,73.5 C 169.5,73.5 172.5,73.5 175.5,73.5C 175.5,78.8333 175.5,84.1667 175.5,89.5C 172.653,89.7824 169.987,89.7824 167.5,89.5C 166.505,84.2079 166.172,78.8746 166.5,73.5 Z"/></g>
<g><path style="opacity:0.976" fill="#c23050" d="M 108.5,66.5 C 105.518,66.0371 102.518,65.7038 99.5,65.5C 99.8202,104.693 99.8202,144.026 99.5,183.5C 98.5014,143.67 98.1681,103.67 98.5,63.5C 101.522,63.804 104.522,64.304 107.5,65C 108.056,65.3826 108.389,65.8826 108.5,66.5 Z"/></g>
<g><path style="opacity:0.977" fill="#dd7680" d="M 168.5,29.5 C 172.807,30.3266 177.14,30.9933 181.5,31.5C 182.149,57.4775 182.482,83.4775 182.5,109.5C 182.5,134.509 181.833,159.176 180.5,183.5C 180.194,134.462 180.528,85.6288 181.5,37C 177.104,34.4731 172.771,31.9731 168.5,29.5 Z"/></g>
<g><path style="opacity:0.004" fill="#fefffe" d="M 4.5,119.5 C 5.83333,120.167 5.83333,120.167 4.5,119.5 Z"/></g>
<g><path style="opacity:0.966" fill="#c22f52" d="M 159.5,24.5 C 155.736,23.1192 152.069,21.4526 148.5,19.5C 147.5,74.1626 147.167,128.829 147.5,183.5C 146.829,128.627 146.163,73.6274 145.5,18.5C 148.086,17.52 150.753,17.1866 153.5,17.5C 154.031,20.7794 156.031,22.1128 159.5,21.5C 159.5,22.5 159.5,23.5 159.5,24.5 Z"/></g>
<g><path style="opacity:0.004" fill="#fefffe" d="M 192.5,138.5 C 193.833,139.167 193.833,139.167 192.5,138.5 Z"/></g>
<g><path style="opacity:0.967" fill="#d96473" d="M 109.5,66.5 C 115.731,66.5997 121.897,67.2663 128,68.5C 131.835,68.1104 135.668,67.777 139.5,67.5C 140.143,87.477 140.476,107.477 140.5,127.5C 140.5,146.512 139.833,165.179 138.5,183.5C 138.655,146.886 138.822,110.219 139,73.5C 129.03,71.3427 119.197,69.0093 109.5,66.5 Z"/></g>
<g><path style="opacity:1" fill="#cf5364" d="M 171.5,21.5 C 177.671,23.8357 183.505,26.8357 189,30.5C 189.171,61.405 189.671,92.2384 190.5,123C 189.833,145.667 189.167,168.333 188.5,191C 129.167,191.667 69.8333,191.667 10.5,191C 9.80945,189.933 9.30945,188.766 9,187.5C 8.33333,157.5 8.33333,127.5 9,97.5C 9.0572,95.0898 10.2239,93.7565 12.5,93.5C 11.1961,109.515 10.5295,125.682 10.5,142C 10.5073,157.876 10.8406,173.709 11.5,189.5C 69.8333,190.833 128.167,190.833 186.5,189.5C 188.49,136.982 189.156,84.3152 188.5,31.5C 182.82,29.8278 177.487,27.3278 172.5,24C 171.748,23.3292 171.414,22.4959 171.5,21.5 Z"/></g>
<g><path style="opacity:1" fill="#e1435a" d="M 152.5,145.5 C 155.5,145.5 158.5,145.5 161.5,145.5C 161.5,150.833 161.5,156.167 161.5,161.5C 158.552,161.777 155.719,161.444 153,160.5C 152.501,155.511 152.334,150.511 152.5,145.5 Z"/></g>
<g><path style="opacity:1" fill="#da284d" d="M 102.5,145.5 C 105.5,145.5 108.5,145.5 111.5,145.5C 111.5,150.833 111.5,156.167 111.5,161.5C 108.552,161.777 105.719,161.444 103,160.5C 103.824,155.523 103.658,150.523 102.5,145.5 Z"/></g>
<g><path style="opacity:1" fill="#e14359" d="M 166.5,145.5 C 169.5,145.5 172.5,145.5 175.5,145.5C 175.5,150.833 175.5,156.167 175.5,161.5C 172.552,161.777 169.719,161.444 167,160.5C 166.501,155.511 166.334,150.511 166.5,145.5 Z"/></g>
<g><path style="opacity:1" fill="#da274c" d="M 126.5,145.5 C 129.5,145.5 132.5,145.5 135.5,145.5C 135.5,150.833 135.5,156.167 135.5,161.5C 132.278,161.892 129.278,161.392 126.5,160C 127.755,155.199 127.755,150.365 126.5,145.5 Z"/></g>
<g><path style="opacity:1" fill="#dc3651" d="M 114.5,145.5 C 117.5,145.5 120.5,145.5 123.5,145.5C 123.5,150.833 123.5,156.167 123.5,161.5C 120.552,161.777 117.719,161.444 115,160.5C 114.779,155.649 114.612,150.649 114.5,145.5 Z"/></g>
<g><path style="opacity:1" fill="#da264c" d="M 102.5,121.5 C 105.5,121.5 108.5,121.5 111.5,121.5C 111.5,126.833 111.5,132.167 111.5,137.5C 108.552,137.777 105.719,137.444 103,136.5C 103.824,131.523 103.658,126.523 102.5,121.5 Z"/></g>
<g><path style="opacity:0.004" fill="#fefffe" d="M 115.5,129.5 C 115.5,130.833 115.5,132.167 115.5,133.5C 114.761,133.631 114.094,133.464 113.5,133C 114.085,131.698 114.751,130.531 115.5,129.5 Z"/></g>
<g><path style="opacity:1" fill="#da294d" d="M 115.5,133.5 C 115.5,132.167 115.5,130.833 115.5,129.5C 115.708,127.08 115.374,124.747 114.5,122.5C 117.428,121.516 120.428,121.183 123.5,121.5C 123.5,126.833 123.5,132.167 123.5,137.5C 120.5,137.5 117.5,137.5 114.5,137.5C 114.433,136.041 114.766,134.708 115.5,133.5 Z"/></g>
<g><path style="opacity:1" fill="#e1435a" d="M 152.5,121.5 C 155.5,121.5 158.5,121.5 161.5,121.5C 161.5,126.833 161.5,132.167 161.5,137.5C 158.552,137.777 155.719,137.444 153,136.5C 152.501,131.511 152.334,126.511 152.5,121.5 Z"/></g>
<g><path style="opacity:1" fill="#da254b" d="M 126.5,121.5 C 129.5,121.5 132.5,121.5 135.5,121.5C 135.5,126.833 135.5,132.167 135.5,137.5C 132.278,137.892 129.278,137.392 126.5,136C 127.755,131.199 127.755,126.365 126.5,121.5 Z"/></g>
<g><path style="opacity:1" fill="#e0455a" d="M 166.5,121.5 C 169.5,121.5 172.5,121.5 175.5,121.5C 175.832,126.675 175.832,132.008 175.5,137.5C 172.5,137.5 169.5,137.5 166.5,137.5C 166.5,132.167 166.5,126.833 166.5,121.5 Z"/></g>
<g><path style="opacity:1" fill="#e1445a" d="M 166.5,97.5 C 169.5,97.5 172.5,97.5 175.5,97.5C 175.5,102.833 175.5,108.167 175.5,113.5C 172.5,113.5 169.5,113.5 166.5,113.5C 166.5,108.167 166.5,102.833 166.5,97.5 Z"/></g>
<g><path style="opacity:1" fill="#e04159" d="M 152.5,97.5 C 155.5,97.5 158.5,97.5 161.5,97.5C 161.5,102.833 161.5,108.167 161.5,113.5C 158.5,113.5 155.5,113.5 152.5,113.5C 152.5,108.167 152.5,102.833 152.5,97.5 Z"/></g>
<g><path style="opacity:1" fill="#d9254a" d="M 127.5,97.5 C 130.167,97.5 132.833,97.5 135.5,97.5C 135.5,102.833 135.5,108.167 135.5,113.5C 132.278,113.892 129.278,113.392 126.5,112C 127.384,107.049 127.717,102.216 127.5,97.5 Z"/></g>
<g><path style="opacity:1" fill="#d9274b" d="M 115.5,97.5 C 118.167,97.5 120.833,97.5 123.5,97.5C 123.5,102.833 123.5,108.167 123.5,113.5C 120.5,113.5 117.5,113.5 114.5,113.5C 115.46,108.005 115.793,102.671 115.5,97.5 Z"/></g>
<g><path style="opacity:1" fill="#dc2f4f" d="M 103.5,97.5 C 106.167,97.5 108.833,97.5 111.5,97.5C 111.5,102.833 111.5,108.167 111.5,113.5C 108.5,113.5 105.5,113.5 102.5,113.5C 103.392,107.994 103.725,102.661 103.5,97.5 Z"/></g>
<g><path style="opacity:0.004" fill="#fefffe" d="M 0.5,196.5 C 1.83333,197.167 1.83333,197.167 0.5,196.5 Z"/></g>
<g><path style="opacity:0.004" fill="#fefffe" d="M 101.5,196.5 C 102.833,197.167 102.833,197.167 101.5,196.5 Z"/></g>
<g><path style="opacity:0.004" fill="#fefffe" d="M 104.5,196.5 C 105.833,197.167 105.833,197.167 104.5,196.5 Z"/></g>
<g><path style="opacity:0.004" fill="#fefffe" d="M 150.5,197.5 C 151.833,198.167 151.833,198.167 150.5,197.5 Z"/></g>
</svg>
